<svg fill="none" height="64" viewBox="0 0 64 64" width="64" xmlns="http://www.w3.org/2000/svg"><g clip-rule="evenodd" fill-rule="evenodd"><path d="m15 25h34v-16h-34zm40-17v48c0 2.76-2.24 5-5 5h-36c-2.76 0-5-2.24-5-5v-48c0-2.76 2.24-5 5-5h36c2.76 0 5 2.24 5 5z" fill="#d5ffcc"/><path d="m15 25h34v-16h-34z" fill="#4da6ff"/><path d="m21 15v4zm34 37v-44c0-2.761-2.238-5-5-5h-36c-2.762 0-5 2.239-5 5v48c0 2.761 2.238 5 5 5h36c2.762 0 5-2.239 5-5zm-42-9h38zm19 14v-28zm-8-2-6-6zm0-6-6 6zm22 5h-6zm0-4h-6zm0-16h-6zm-22 0h-6zm-3-3v6zm-6-6h34v-16h-34z" stroke="#12131a" stroke-linecap="round" stroke-linejoin="round"/></g></svg>